<?xml version="1.0" encoding="utf-8"?>
<!-- Svg Vector Icons : http://www.onlinewebfonts.com/icon -->
<!DOCTYPE svg PUBLIC "-//W3C//DTD SVG 1.1//EN" "http://www.w3.org/Graphics/SVG/1.1/DTD/svg11.dtd">
<svg version="1.1" xmlns="http://www.w3.org/2000/svg" xmlns:xlink="http://www.w3.org/1999/xlink" x="0px" y="0px" viewBox="0 0 1000 1000" enable-background="new 0 0 1000 1000" xml:space="preserve">
<metadata> Svg Vector Icons : http://www.onlinewebfonts.com/icon </metadata>
<g><g transform="translate(0.000000,301.000000) scale(0.100000,-0.100000)"><path d="M417.3,1204.2c-107-30-207.6-113.4-263.2-216.2l-47.1-89.9l-6.4-2842.3c-2.1-1870.6,2.1-2872.3,17.1-2923.6c32.1-122,109.2-220.5,214-280.4l96.3-53.5l4505.3-6.4c3242.5-4.3,4537.4,2.1,4620.8,19.3c139.1,27.8,284.6,160.5,321,288.9c34.2,119.9,32.1,5701.7,0,5819.4c-32.1,111.3-175.5,254.7-286.8,286.8C9474.9,1238.4,528.6,1236.3,417.3,1204.2z M1279.8-1064.5c100.6-250.4,199.1-492.3,218.3-535.1l32.1-81.3h-128.4h-130.6l-55.6,128.4l-55.6,128.4H969.5H779l-55.6-128.4l-55.6-128.4H541.4c-68.5,0-124.1,6.4-124.1,12.8c0,12.8,404.5,1014.5,421.6,1042.3c4.3,8.6,64.2,15,132.7,15h126.3L1279.8-1064.5z M2157.3-1021.7c83.5-220.4,156.2-396,164.8-391.7c6.4,4.3,83.5,186.2,171.2,406.7l158.4,398.1l192.6-6.4l194.8-6.4l6.4-528.7l4.3-530.8h-128.4H2793v389.5c0,214-6.4,381-15,372.4c-10.7-8.6-85.6-181.9-166.9-383.1l-152-368.1l-139.1-6.4l-141.3-6.4l-147.7,381l-147.7,381l-6.4-378.8l-4.3-381h-128.4h-128.4v535.1v537.2l194.8-6.4l194.8-6.4L2157.3-1021.7z M4179.9-711.4l-6.4-102.7l-316.8-6.4l-316.8-6.4l6.4-100.6l6.4-100.6l274-6.4l271.8-6.4v-94.2v-96.3h-278.2h-278.2v-117.7v-115.6l327.5-6.4l325.3-6.4l6.4-100.6l6.4-102.7h-449.5h-451.6v535.1v535.1h440.9h438.8L4179.9-711.4z M5220-664.3c45-21.4,100.6-68.5,122-104.9c81.3-134.8,34.3-340.3-96.3-408.8l-72.8-38.5l68.5-47.1c83.5-55.6,111.3-113.4,137-282.5l19.3-134.8h-143.4H5113l-23.5,139.1c-12.8,79.2-36.4,156.2-53.5,175.5c-49.2,59.9-160.5,92-316.8,92h-149.8v-203.3v-203.3H4441h-128.4v537.2v537.2l413.1-8.6C5074.5-621.5,5149.4-630,5220-664.3z M5767.9-1145.8v-535.1h-107h-107v535.1v535.1h107h107V-1145.8z M6752.5-704.9v-94.2l-237.6-8.6l-237.6-6.4l-62.1-70.6c-57.8-64.2-62.1-81.3-62.1-241.9c0-293.2,59.9-361.7,318.9-361.7h145.6l177.6,438.8l177.6,440.9l128.4-6.4l130.6-6.4l207.6-513.7c115.6-282.5,209.8-520.1,211.9-528.6c0-10.7-55.6-17.1-124.1-17.1h-126.3l-55.6,128.4l-55.7,128.4h-190.5h-190.5l-55.6-128.4l-55.7-128.4h-284.6c-406.7,2.1-511.5,57.8-586.4,318.9c-44.9,152-30,389.5,32.1,509.4c51.4,102.7,154.1,194.8,233.3,211.9c32.1,6.4,68.5,15,79.2,19.3c12.8,4.3,124.1,8.6,252.5,8.6l229,2.1V-704.9z M8261.3-989.6c104.9-201.2,199-374.5,209.7-383.1c8.6-8.6,15,158.4,15,372.4v389.5h107h107v-535.1V-1683l-143.4,6.4l-145.5,6.4l-203.3,374.5l-203.3,374.5l-6.4-378.8l-4.3-381h-107h-107v535.1v537.2l143.4-6.4l143.4-6.4L8261.3-989.6z M3724-2622.6c66.3-94.2,122-171.2,126.3-171.2c2.1,0,62.1,77.1,130.6,171.2l128.4,173.4l517.9-6.4c485.8-6.4,520.1-8.5,577.9-51.3c196.9-147.7,192.6-473-10.7-590.7c-51.4-32.1-115.6-38.5-333.9-38.5h-269.7v-192.6v-192.6h-235.4h-235.4l-130.6,177.6c-72.8,96.3-132.7,177.7-137,181.9c-4.3,4.3-66.3-74.9-139.1-175.5l-132.7-184.1h-554.3h-554.3v535.1v535.1h565h567.2L3724-2622.6z M6285.9-2472.8c220.4-62.1,274-378.8,92-530.8l-74.9-59.9l51.4-30c70.6-36.4,111.3-130.5,128.4-295.4l15-134.8l-122,6.4l-124.1,6.4l-25.7,128.4c-12.8,70.6-32.1,145.5-40.7,166.9c-27.8,66.4-128.4,100.6-288.9,100.6h-149.8v-203.3v-203.3h-107h-107v535.1v535.1h338.2C6054.7-2451.4,6243.1-2462.1,6285.9-2472.8z M7501.6-2547.7v-96.3h-310.3h-310.3v-107v-107h267.5h267.5v-107v-107h-267.5h-267.5v-117.7v-117.7h321h321v-107v-107h-449.5H6624v535.1v535.1h438.8h438.8V-2547.7z M8507.5-2547.7v-96.3h-288.9c-278.2,0-288.9-2.1-321-51.3c-38.5-57.8-15-147.7,42.8-171.2c19.3-6.4,117.7-12.9,218.3-12.9c231.1,0,316.7-36.4,372.4-158.4c51.4-113.5,51.4-214-2.1-321c-68.5-141.3-94.2-152-485.8-158.4l-348.9-8.6v98.5v98.4h273.9c301.8,0,368.1,21.4,368.1,119.9c0,102.7-66.3,137-267.5,137c-111.3,0-211.9,12.9-256.8,30c-209.7,87.7-216.2,460.2-10.7,562.9c36.4,19.3,162.7,27.8,381,27.8h325.3V-2547.7z M9513.4-2547.7v-96.3h-284.7c-312.5,0-336-8.5-336-122c0-94.2,44.9-113.4,271.8-113.4c224.7,0,318.9-38.5,374.6-149.8c85.6-169.1,15-413.1-132.7-464.4c-44.9-15-205.4-25.7-389.5-25.7l-316.7-2.2v96.3v96.3H8974c303.9,0,368.1,21.4,368.1,122c0,107-51.4,134.8-254.7,137c-303.9,0-404.5,66.3-423.8,269.7c-15,134.8,34.3,248.3,126.3,306.1c62.1,38.5,107,42.8,398.1,42.8h325.3V-2547.7z"/><path d="M903.1-1032.4c-30-79.2-62.1-162.7-70.6-181.9c-10.7-34.2,2.1-38.5,128.4-38.5c79.2,0,141.3,8.6,141.3,21.4c0,27.8-109.2,303.9-128.4,327.5C965.2-895.4,935.2-953.2,903.1-1032.4z"/><path d="M4569.4-942.5v-139.1h224.7c196.9,0,231.1,6.4,267.5,42.8c23.5,23.5,42.8,66.4,42.8,96.3s-19.3,72.8-42.8,96.3c-36.4,36.4-70.6,42.8-267.5,42.8h-224.7V-942.5z"/><path d="M7075.6-933.9c-10.7-27.8-38.5-102.7-64.2-164.8c-25.7-62.1-44.9-122-44.9-132.7c0-12.8,62.1-21.4,139.1-21.4s139.1,4.3,139.1,10.7c0,15-130.5,340.3-141.3,351C7099.2-886.9,7086.3-906.1,7075.6-933.9z"/><path d="M3349.4-2601.2c0-40.7-15-42.8-310.3-42.8h-310.3v-107v-107h267.5h267.5v-107v-107h-267.5h-267.5v-117.7v-117.7h351h353.1l126.3,164.8l128.4,164.8l-160.5,209.7c-87.7,115.6-164.8,209.7-169.1,209.7C3353.7-2558.4,3349.4-2577.7,3349.4-2601.2z"/><path d="M4186.3-2757.5c-77.1-96.3-145.5-186.2-156.2-199c-10.7-15,42.8-102.7,143.4-233.3l160.5-209.7v408.8c0,226.9-2.1,410.9-4.3,410.9C4325.4-2579.8,4261.2-2659,4186.3-2757.5z"/><path d="M4590.8-2804.6v-160.5H4747c169.1,0,291.1,25.7,318.9,68.5c8.5,15,17.1,62.1,17.1,104.9c0,124.1-45,147.7-284.7,147.7h-207.6V-2804.6z"/><path d="M5746.5-2783.1v-139.1h203.3c229,0,288.9,30,288.9,145.5c0,109.2-53.5,132.7-284.6,132.7h-207.6V-2783.1z"/></g></g>
</svg>