<?xml version="1.0" encoding="utf-8"?>
<!-- Svg Vector Icons : http://www.onlinewebfonts.com/icon -->
<!DOCTYPE svg PUBLIC "-//W3C//DTD SVG 1.1//EN" "http://www.w3.org/Graphics/SVG/1.1/DTD/svg11.dtd">
<svg version="1.1" xmlns="http://www.w3.org/2000/svg" xmlns:xlink="http://www.w3.org/1999/xlink" x="0px" y="0px" viewBox="0 0 1000 1000" enable-background="new 0 0 1000 1000" xml:space="preserve">
<metadata> Svg Vector Icons : http://www.onlinewebfonts.com/icon </metadata>
<g><path d="M295.4,515.7h-5.5c-13.3,0-20,4.5-20,13.6c0,6.2,2.8,9.4,8.5,9.4c4.8,0,8.8-2.1,11.9-6.4S295.1,522.5,295.4,515.7z M463.4,500.4h26.4v-1.3c0.3-1.1,1-2.1,2.1-2.8c1.1-0.7,1-1.7-0.4-3c-1.4-1.3-1.7-2.4-0.9-3.4c0.9-1,0.2-1.9-1.9-2.8c-2.1-0.9-3.2-1.6-3.2-2.1c0-0.6-1.6-0.9-4.9-0.9c-7.9,0-13,5.4-15.3,16.2H463.4z M693.1,515.7H688c-13.6,0-20.4,4.5-20.4,13.6c0,6.2,2.8,9.4,8.5,9.4c4.8,0,8.8-2.1,11.9-6.4S692.8,522.5,693.1,515.7z M828.8,504.7c0-11.6-4.3-17.4-12.8-17.4c-5.4,0-9.8,2.8-13.2,8.5s-5.1,12.9-5.1,21.7c0,11.9,4,17.9,11.9,17.9c5.7,0,10.3-2.8,13.8-8.5S828.8,513.8,828.8,504.7z M214.2,444.7h37l-18.7,111.4h-23.8l13.6-85.5L192,556.1h-16.6l-1.7-85.1l-14.5,85.1h-22.5l18.7-111.4h34.5l0.9,69.3L214.2,444.7z M321.8,490.2c0,1.7-0.6,7.7-1.7,17.9c-4.5,28.6-6.9,44.7-7.2,48.1h-20l0.4-9.4c-5.7,7.4-13.9,11.1-24.7,11.1c-6.5,0-11.8-2.3-16-6.8c-4.1-4.5-6.2-10.5-6.2-17.9c0-11.1,3.7-19.6,11.1-25.7c7.4-6.1,17.7-9.1,31.1-9.1c4,0,7.2,0.1,9.8,0.4c0-0.9,0.7-1.6,2.1-2.3c1.4-0.7,1.6-1.3,0.4-1.9c-1.1-0.6-0.4-1,2.1-1.3c0-5.7-5.1-8.5-15.3-8.5c-8.2,0-16.6,1.4-25.1,4.3c0-1.1,1-7.9,3-20.4c10.8-3.1,20.3-4.7,28.5-4.7c21,0,31.5,8.8,31.5,26.4H321.8z M388.1,465.5l-3.4,20.8c-6.2-0.9-12.1-1.3-17.4-1.3c-7.7,0-11.5,2.4-11.5,7.2c0,2.3,0.6,4,1.9,5.1c1.3,1.1,4.3,2.7,9.1,4.7c11.3,5.4,17,13.9,17,25.5c0,20.4-12.3,30.5-37,30.2c-9.6,0-17.9-0.9-24.7-2.6c0-0.6,1-7.5,3-20.8c8.2,2.3,15.5,3.4,21.7,3.4c9.1,0,13.6-2.7,13.6-8.1c0-2-0.6-3.6-1.9-4.9c-1.3-1.3-4.3-3-9.1-5.3c-12.2-5.7-18.3-14-18.3-25.1c0-20.4,11.9-30.6,35.7-30.6C375.4,463.8,382.5,464.4,388.1,465.5L388.1,465.5z M425.6,465.5h11.9l-3,22.1h-12.3c-0.6,4.8-1.5,10.6-2.8,17.2c-1.3,6.7-2.3,12.1-3,16.4c-0.7,4.3-1.1,6.8-1.1,7.7c0,4.5,2.7,6.8,8.1,6.8c2.3,0,4.5-0.3,6.8-0.8l-3.4,20c-6,2-11.6,3-17,3c-12.2,0-18.6-6.7-19.1-20c0-3.4,1.1-11.3,3.4-23.8c0.9-5.7,4.4-26.4,10.6-62.1h23.4L425.6,465.5z M511.9,496.6c0,6.5-1,13.9-3,22.1h-47.2c-0.9,6.2,0.6,10.9,4.3,14c3.7,3.1,9.1,4.7,16.2,4.7c8.5,0,16.7-2,24.7-6l-3.8,23c-8.5,2.3-16.6,3.4-24.2,3.4c-26.9,0-40.4-13.5-40.4-40.4c0-15.6,3.9-28.4,11.7-38.5c7.8-10.1,17.7-15.1,29.6-15.1c9.9,0,17.8,3,23.6,8.9C509,478.7,511.9,486.7,511.9,496.6L511.9,496.6z M571,465.1c-3.7,6.5-6.8,15.3-9.4,26.4c-6.2-0.6-10.6,2.8-13.2,10.2c-2.6,7.4-6.1,25.5-10.6,54.4H514l1.3-6c6.2-36.9,10.3-65.1,12.3-84.6h21.7l-1.3,14c4-6,7.6-10.1,10.8-12.5C562.2,464.6,566.2,464,571,465.1L571,465.1z M650.6,447.7l-3.8,24.2c-7.9-4-15-6-21.3-6c-8.8,0-16,3.9-21.7,11.7c-5.7,7.8-8.5,17.8-8.5,30c0,8.5,1.9,15.2,5.7,20s9.3,7.2,16.4,7.2c6,0,12.8-1.8,20.4-5.5l-4.3,25.1c-7.9,2.3-15,3.4-21.3,3.4c-12.8,0-22.9-4.3-30.4-13c-7.5-8.6-11.3-20.3-11.3-35.1c0-19.8,5-36.1,15.1-48.7c10.1-12.6,23-18.9,38.9-18.9C632,442.2,640.6,444,650.6,447.7L650.6,447.7z M719.5,490.2c0,5.1-0.6,11.1-1.7,17.9c-3.7,22.4-6.1,38.4-7.2,48.1H691l0.4-9.4c-5.7,7.4-14,11.1-25.1,11.1c-6.5,0-11.8-2.3-15.7-6.8c-4-4.5-6-10.5-6-17.9c0-11.1,3.6-19.6,10.8-25.7c7.2-6.1,17.5-9.1,30.8-9.1c4.3,0,7.5,0.1,9.8,0.4c0.6-2,0.9-3.8,0.9-5.5c0-5.7-5.1-8.5-15.3-8.5c-8.2,0-16.6,1.4-25.1,4.3c0-1.1,1.1-7.9,3.4-20.4c10.8-3.1,20.3-4.7,28.5-4.7C709.1,463.8,719.5,472.6,719.5,490.2L719.5,490.2z M779.5,465.1c-4,6.8-6.9,15.6-8.9,26.4c-6.5-0.6-11,2.7-13.4,9.8c-2.4,7.1-6,25.4-10.8,54.9h-23.8l1.3-6c5.4-29.5,9.5-57.7,12.3-84.6h22.1c0,3.1-0.6,7.8-1.7,14c4.3-6,8-10.1,11.3-12.5C771,464.6,774.9,464,779.5,465.1L779.5,465.1z M839.4,444.7h23.8L845,556.1h-22.5l1.3-8.1c-6.5,6.5-13.9,9.8-22.1,9.8c-8.8,0-15.8-3.4-21.1-10.2c-5.2-6.8-7.9-15.9-7.9-27.2c0-15,3.9-28.1,11.7-39.1c7.8-11.1,16.9-16.6,27.4-16.6c8.8,0,16.3,4.1,22.5,12.3L839.4,444.7z M886.6,500c0-42-10.3-80.7-30.8-116.1s-48.6-63.5-84.2-84.2s-74.4-31.1-116.3-31.1c-51.3,0-97.8,15.6-139.5,46.8c36,32.9,60.3,73.2,72.7,120.8h-21.3c-12.5-42.5-34.9-78.4-67.2-107.6c-32.3,29.2-54.7,65.1-67.2,107.6h-21.3c12.5-47.6,36.7-87.9,72.7-120.8c-41.7-31.2-88.2-46.8-139.5-46.8c-42,0-80.7,10.4-116.3,31.1s-63.7,48.8-84.2,84.2c-20.6,35.4-30.8,74.2-30.8,116.1c0,42,10.3,80.7,30.8,116.1c20.6,35.4,48.6,63.5,84.2,84.2c35.6,20.7,74.4,31.1,116.3,31.1c51.3,0,97.8-15.6,139.5-46.8c-34-31.5-57.4-68.9-70.2-112.3h21.3c13,39.1,34.6,72.2,64.7,99.1c30.1-26.9,51.6-60,64.7-99.1h21.3c-12.8,43.4-36.2,80.8-70.2,112.3c41.7,31.2,88.2,46.8,139.5,46.8c42,0,80.7-10.3,116.3-31.1c35.6-20.7,63.7-48.8,84.2-84.2C876.4,580.7,886.6,542,886.6,500L886.6,500z M990,227.8v544.4c0,14.7-5.4,27.5-16.2,38.3c-10.8,10.8-23.5,16.2-38.3,16.2H64.4c-14.7,0-27.5-5.4-38.3-16.2C15.4,799.7,10,787,10,772.2V227.8c0-14.7,5.4-27.5,16.2-38.3s23.5-16.2,38.3-16.2h871.1c14.7,0,27.5,5.4,38.3,16.2C984.6,200.3,990,213,990,227.8z"/></g>
</svg>