<?xml version="1.0" encoding="utf-8"?>
<!-- Generator: Adobe Illustrator 16.0.0, SVG Export Plug-In . SVG Version: 6.00 Build 0)  -->
<!DOCTYPE svg PUBLIC "-//W3C//DTD SVG 1.1//EN" "http://www.w3.org/Graphics/SVG/1.1/DTD/svg11.dtd">
<svg version="1.1" id="Layer_1" xmlns="http://www.w3.org/2000/svg" xmlns:xlink="http://www.w3.org/1999/xlink" x="0px" y="0px"
	 width="1890px" height="768px" viewBox="0 0 1890 768" enable-background="new 0 0 1890 768" xml:space="preserve">
<g>
	<path fill="#FFFFFF" d="M968.5,591.4c-32.1-2.6-58.1-7.399-80.5-15.1c-10.3-3.601-13-5-13-7.2c0-1.9,1.9-11.6,6-30.1
		c1.101-5.2,4.101-19.2,6.601-31c2.5-11.801,4.8-21.801,5-22.2c0.8-1.3,1.8-1,10.1,2.8c30.601,14.2,54.8,19.7,87.3,19.8
		c17.4,0.101,20.5-0.2,29-2.3c22.301-5.6,34.5-16.3,35.7-31.6c1.5-18.4-8.2-28.101-48.7-48.601c-27.699-14-45.6-25.899-59.5-39.5
		c-21.399-20.899-30.5-41-30.5-67.2c0-34.3,13.4-63.3,40.301-87.1c22.1-19.5,48.3-31.5,85-38.8c12.5-2.5,15.3-4.366,44.699-4.466
		c27.7,0,31.7,1.966,41.7,3.966c24.2,4.6,51,12.3,52,14.9c0.3,0.8-2.5,15.5-6.2,32.6c-3.699,17.2-7.399,34.6-8.1,38.7
		c-0.8,4.1-1.8,8.5-2.3,9.7l-1,2.199l-8-3.399c-10.8-4.601-25.3-8.9-39.101-11.7c-9.899-2-14.5-2.3-33.5-2.3
		c-20,0-22.699,0.2-29.699,2.3c-14.101,4.2-23.101,10.6-27.4,19.7c-6.2,13-0.4,25.1,17.5,36.8c3.9,2.6,16.4,9.7,27.8,15.8
		c26.8,14.3,27.9,15,39.8,23c21.7,14.7,36.7,30.9,44.5,48.4c6.301,13.899,7.4,20.3,7.4,40c0,16.3-0.3,19-2.7,28.1
		c-6.7,25.3-17.2,42.8-36.3,60.3c-24.6,22.5-59.4,37-101.4,42.101C1011.9,591.1,976.7,592,968.5,591.4z"/>
	<path fill="#FFFFFF" d="M477.9,584.4c-0.7-0.899-2.6-6.399-4-12.3c-2.9-11.5-6.8-26.5-23.9-92.6c-3.199-12.4-15.1-58.4-21-81.5
		c-3.199-12.4-7.699-29.7-10-38.5c-2.199-8.801-5.899-22.7-8-31c-2.1-8.2-5.1-19.7-6.5-25.5c-10.399-40.9-13.5-48.7-22-55
		C367.7,236.9,323.9,220.8,284.6,211.9c-4.3-0.899-8.2-2.1-8.8-2.699c-1.301-1.301,0.3-9.301,2.399-11.4c1.7-1.7,5.5-1.8,87.601-1.8
		c79.8,0,86.199,0.1,93.399,1.899C479.301,202.7,492.4,218,496.9,242c1.1,5.8,3.2,16.8,4.6,24.5c1.5,7.7,3.5,18.5,4.5,24
		s3.7,19.699,6,31.5c2.2,11.8,6.601,34.8,9.601,51c3,16.199,6.6,35.399,8,42.5c1.399,7.199,3.1,16.8,4,21.5
		c0.8,4.699,2,11.1,2.7,14.3l1.199,5.8l5.9-14.8c3.2-8.101,10.5-26.7,16.3-41.3c5.8-14.601,12.9-32.601,15.8-40
		c6.601-16.9,24-60.801,35-88.5c4.601-11.5,13-32.7,18.601-47c5.6-14.3,10.899-26.8,11.7-27.7C642.2,196.1,646,196,694.2,196
		c41.7,0,52,0.3,52.4,1.3c0.2,0.7-3.8,11.4-9,23.8C732.4,233.4,720,263.1,710,287c-10,23.899-22.899,54.8-28.699,68.5
		c-5.7,13.8-12,28.6-13.801,33c-1.8,4.399-9.5,22.6-17,40.5c-7.5,17.899-14.6,34.8-15.699,37.5c-1.101,2.8-2.601,6.399-3.301,8
		c-0.699,1.699-7.3,17.199-14.5,34.5c-23.699,56.899-31.199,74.5-32.199,75.8C584,585.699,572.1,586,531.5,586
		C484.6,586,479.1,585.8,477.9,584.4z"/>
	<path fill="#FFFFFF" d="M706.4,584.5c-0.4-0.9-0.4-2.801,0-4.301c1.5-7,4.8-22.399,6.1-28.699c0.801-3.801,2.5-11.9,3.9-18
		c3.6-16.7,9.2-42.5,12.1-56.5c3.601-16.9,6.601-31.2,10.9-51.5c2-9.301,4.6-21.301,5.7-26.5c1.1-5.2,2.5-11.5,3-14
		c0.6-2.5,2.3-10.601,3.899-18c1.601-7.4,3.801-17.801,5-23c2.101-9.601,4.801-22.5,7.5-35.5c0.801-3.801,2.4-11.3,3.5-16.5
		c2.5-11,3.601-16.2,8.5-39.5c2-9.3,4.5-20.8,5.5-25.5s2.7-13,3.9-18.4c1.2-5.5,2.6-10.5,3.2-11.3C790,196.3,799.5,196,839,196
		c42.301,0,48.9,0.2,50,1.5c1,1.2,1,2.7,0,7.3c-0.699,3.1-1.8,8.4-2.5,11.7c-0.699,3.3-2.699,12.5-4.399,20.5
		c-1.8,8-5,23.1-7.2,33.5c-2.2,10.5-5.1,24.2-6.5,30.5c-1.3,6.3-3.3,15.6-4.3,20.5c-5.3,25.1-15.2,71.5-16,75
		c-0.601,2.199-1.9,8.5-3.101,14c-1.199,5.5-2.6,12-3.1,14.5c-0.6,2.5-1.9,8.6-2.9,13.5c-1,5-3.199,15.5-5,23.5
		c-1.699,8-4.699,21.699-6.6,30.5c-3.2,15.3-6.3,30-10.3,48.5c-1,4.699-3.3,15.5-5.101,24c-1.699,8.5-3.699,16.6-4.399,18
		l-1.101,2.5l-49.8,0.3C712.7,586,706.9,585.8,706.4,584.5z"/>
	<path fill="#FFFFFF" d="M1156.301,584.9c-1.101-1.1,1-6.8,11-29.899c2.5-5.801,9.699-23.101,16.199-38.5
		c6.4-15.4,13.101-31.601,15-36c1.801-4.4,7.7-18.301,12.9-31c5.3-12.601,10.5-25,11.6-27.5c1.101-2.5,7.4-17.5,14-33.5
		c6.7-15.9,14.301-34.2,17-40.5c13-30.9,26.801-63.7,31.2-74.5c2.7-6.601,5.3-12.9,5.8-14c0.5-1.101,4.101-9.601,8-18.9
		c8.4-20.3,10.4-23.899,17.101-30.399c6.399-6.301,12.7-9.7,22.5-12.2c7.1-1.8,11.2-2,50.899-2c40.601,0,43.301,0.1,44.801,1.8
		c1,1,1.699,2.6,1.699,3.4c0,0.899,0.9,5.399,2,10c1,4.6,2.2,9.899,2.5,11.8c0.301,1.899,1.4,7.6,2.5,12.5
		c5.9,27.5,7.9,36.8,9.9,47.5c0.5,2.5,2.6,12.399,4.6,22c2.101,9.6,4.101,19.3,4.5,21.5c0.4,2.199,2.2,10.8,4,19
		c5.2,24.399,8,37.5,9.601,46.5c0.8,4.6,1.8,8.8,2,9.199c0.3,0.4,0.899,2.9,1.3,5.601c0.5,2.6,2.5,12.6,4.5,22.2c2,9.6,5,24,6.7,32
		c1.6,8,3.899,18.6,4.899,23.5c1.101,5,2.9,13.5,4,19c1.101,5.5,3,14.1,4,19c1.101,5,3.801,18,6,29
		c2.201,11,4.701,22.699,5.5,25.899c1.101,4.4,1.201,6.3,0.4,7.3c-1.6,1.9-91.1,1.9-92.7,0c-1.1-1.3-3.3-11-9.399-40.899l-3.2-15.8
		H1346h-63.5l-5.899,16.3c-3.2,8.899-7.601,21.1-9.8,27.1c-2.101,6.101-4.601,11.8-5.5,12.8c-1.5,1.7-4.7,1.801-52.801,1.801
		C1173.2,586,1157.1,585.699,1156.301,584.9z M1391.5,443.3c-0.399-1.601-1.3-5.9-2.1-9.8c-0.7-3.801-2.7-13.5-4.4-21.5
		c-1.699-8-3.3-15.801-3.6-17.5c-0.3-1.601-1.9-9.101-3.4-16.5c-3.3-15.2-6.5-30.5-11-52.5c-1.699-8.2-3.3-15.7-3.6-16.5
		c-0.7-1.801,1.2-6.7-36.6,97.5c-7.101,19.8-13.4,36.8-13.9,37.8c-0.9,1.6,1.3,1.7,39.2,1.7h40.1L1391.5,443.3z"/>
</g>
</svg>
